<svg data-v-423bf9ae="" xmlns="http://www.w3.org/2000/svg" viewBox="0 0 297.04698051489027 163" class="iconAbove"><!----><!----><!----><g data-v-423bf9ae="" id="01c8472f-61a8-4560-81ff-a568e08330d4" fill="white" transform="matrix(4.474272981560021,0,0,4.474272981560021,-5.637585411546269,92.97762871705413)"><path d="M4.76 4.58L4.76 4.58Q5.78 4.58 6.59 5.00L6.59 5.00L6.59 5.00Q7.39 5.42 7.85 6.22L7.85 6.22L7.85 6.22Q8.30 7.03 8.30 8.15L8.30 8.15L8.30 11.91L8.30 11.91Q8.30 12.10 8.18 12.21L8.18 12.21L8.18 12.21Q8.06 12.33 7.88 12.33L7.88 12.33L7.88 12.33Q7.70 12.33 7.58 12.21L7.58 12.21L7.58 12.21Q7.46 12.10 7.46 11.91L7.46 11.91L7.46 8.15L7.46 8.15Q7.46 6.82 6.71 6.12L6.71 6.12L6.71 6.12Q5.96 5.42 4.76 5.42L4.76 5.42L4.76 5.42Q4.02 5.42 3.41 5.70L3.41 5.70L3.41 5.70Q2.80 5.99 2.45 6.50L2.45 6.50L2.45 6.50Q2.10 7.01 2.10 7.63L2.10 7.63L2.10 11.91L2.10 11.91Q2.10 12.10 1.99 12.21L1.99 12.21L1.99 12.21Q1.88 12.33 1.68 12.33L1.68 12.33L1.68 12.33Q1.50 12.33 1.38 12.21L1.38 12.21L1.38 12.21Q1.26 12.10 1.26 11.91L1.26 11.91L1.26 5.10L1.26 5.10Q1.26 4.90 1.38 4.79L1.38 4.79L1.38 4.79Q1.50 4.68 1.68 4.68L1.68 4.68L1.68 4.68Q1.88 4.68 1.99 4.79L1.99 4.79L1.99 4.79Q2.10 4.90 2.10 5.10L2.10 5.10L2.10 5.82L2.10 5.82Q2.58 5.24 3.26 4.91L3.26 4.91L3.26 4.91Q3.95 4.58 4.76 4.58L4.76 4.58ZM13.86 4.61L13.86 4.61Q14.88 4.61 15.69 5.09L15.69 5.09L15.69 5.09Q16.49 5.57 16.94 6.43L16.94 6.43L16.94 6.43Q17.39 7.28 17.39 8.37L17.39 8.37L17.39 8.37Q17.39 8.55 17.28 8.66L17.28 8.66L17.28 8.66Q17.16 8.76 16.98 8.76L16.98 8.76L11.12 8.76L11.12 8.76Q11.16 9.59 11.55 10.24L11.55 10.24L11.55 10.24Q11.94 10.89 12.60 11.26L12.60 11.26L12.60 11.26Q13.26 11.62 14.07 11.62L14.07 11.62L14.07 11.62Q14.62 11.62 15.17 11.43L15.17 11.43L15.17 11.43Q15.72 11.24 16.04 10.93L16.04 10.93L16.04 10.93Q16.18 10.82 16.34 10.82L16.34 10.82L16.34 10.82Q16.49 10.82 16.59 10.91L16.59 10.91L16.59 10.91Q16.74 11.03 16.74 11.20L16.74 11.20L16.74 11.20Q16.74 11.34 16.62 11.47L16.62 11.47L16.62 11.47Q16.17 11.87 15.45 12.14L15.45 12.14L15.45 12.14Q14.73 12.40 14.07 12.40L14.07 12.40L14.07 12.40Q12.96 12.40 12.10 11.91L12.10 11.91L12.10 11.91Q11.24 11.41 10.75 10.52L10.75 10.52L10.75 10.52Q10.26 9.63 10.26 8.51L10.26 8.51L10.26 8.51Q10.26 7.38 10.72 6.49L10.72 6.49L10.72 6.49Q11.17 5.60 11.99 5.10L11.99 5.10L11.99 5.10Q12.81 4.61 13.86 4.61L13.86 4.61ZM13.86 5.39L13.86 5.39Q12.77 5.39 12.02 6.12L12.02 6.12L12.02 6.12Q11.27 6.85 11.13 8.04L11.13 8.04L16.58 8.04L16.58 8.04Q16.48 6.85 15.74 6.12L15.74 6.12L15.74 6.12Q14.99 5.39 13.86 5.39L13.86 5.39ZM22.71 4.59L22.71 4.59Q23.80 4.59 24.70 5.10L24.70 5.10L24.70 5.10Q25.59 5.61 26.10 6.51L26.10 6.51L26.10 6.51Q26.61 7.41 26.61 8.51L26.61 8.51L26.61 8.51Q26.61 9.60 26.10 10.50L26.10 10.50L26.10 10.50Q25.59 11.40 24.70 11.91L24.70 11.91L24.70 11.91Q23.80 12.42 22.71 12.42L22.71 12.42L22.71 12.42Q21.60 12.42 20.71 11.91L20.71 11.91L20.71 11.91Q19.81 11.40 19.30 10.50L19.30 10.50L19.30 10.50Q18.79 9.60 18.79 8.51L18.79 8.51L18.79 8.51Q18.79 7.41 19.30 6.51L19.30 6.51L19.30 6.51Q19.81 5.61 20.71 5.10L20.71 5.10L20.71 5.10Q21.60 4.59 22.71 4.59L22.71 4.59ZM22.71 5.38L22.71 5.38Q21.84 5.38 21.14 5.79L21.14 5.79L21.14 5.79Q20.44 6.20 20.03 6.92L20.03 6.92L20.03 6.92Q19.63 7.63 19.63 8.51L19.63 8.51L19.63 8.51Q19.63 9.39 20.03 10.11L20.03 10.11L20.03 10.11Q20.44 10.82 21.14 11.23L21.14 11.23L21.14 11.23Q21.84 11.63 22.71 11.63L22.71 11.63L22.71 11.63Q23.58 11.63 24.28 11.23L24.28 11.23L24.28 11.23Q24.98 10.82 25.38 10.11L25.38 10.11L25.38 10.11Q25.77 9.39 25.77 8.51L25.77 8.51L25.77 8.51Q25.77 7.63 25.38 6.92L25.38 6.92L25.38 6.92Q24.98 6.20 24.28 5.79L24.28 5.79L24.28 5.79Q23.58 5.38 22.71 5.38L22.71 5.38ZM31.33 4.59L31.33 4.59Q33.10 4.59 34.01 5.85L34.01 5.85L34.01 5.85Q34.09 5.95 34.09 6.09L34.09 6.09L34.09 6.09Q34.09 6.29 33.87 6.41L33.87 6.41L33.87 6.41Q33.73 6.47 33.66 6.47L33.66 6.47L33.66 6.47Q33.45 6.47 33.31 6.29L33.31 6.29L33.31 6.29Q32.59 5.38 31.30 5.38L31.30 5.38L31.30 5.38Q30.45 5.38 29.95 5.75L29.95 5.75L29.95 5.75Q29.44 6.12 29.44 6.66L29.44 6.66L29.44 6.66Q29.44 7.22 29.93 7.56L29.93 7.56L29.93 7.56Q30.41 7.90 31.54 8.06L31.54 8.06L31.54 8.06Q33.03 8.27 33.68 8.86L33.68 8.86L33.68 8.86Q34.33 9.44 34.33 10.26L34.33 10.26L34.33 10.26Q34.33 10.91 33.91 11.40L33.91 11.40L33.91 11.40Q33.50 11.89 32.82 12.15L32.82 12.15L32.82 12.15Q32.13 12.42 31.32 12.42L31.32 12.42L31.32 12.42Q30.51 12.42 29.74 12.13L29.74 12.13L29.74 12.13Q28.97 11.84 28.46 11.26L28.46 11.26L28.46 11.26Q28.36 11.14 28.36 11.00L28.36 11.00L28.36 11.00Q28.36 10.81 28.55 10.68L28.55 10.68L28.55 10.68Q28.63 10.61 28.78 10.61L28.78 10.61L28.78 10.61Q28.98 10.61 29.11 10.77L29.11 10.77L29.11 10.77Q29.81 11.62 31.36 11.62L31.36 11.62L31.36 11.62Q32.47 11.62 32.99 11.23L32.99 11.23L32.99 11.23Q33.52 10.84 33.52 10.22L33.52 10.22L33.52 10.22Q33.52 9.11 31.37 8.81L31.37 8.81L31.37 8.81Q30.02 8.61 29.32 8.06L29.32 8.06L29.32 8.06Q28.63 7.52 28.63 6.75L28.63 6.75L28.63 6.75Q28.63 5.73 29.38 5.16L29.38 5.16L29.38 5.16Q30.13 4.59 31.33 4.59L31.33 4.59ZM40.12 4.59L40.12 4.59Q41.23 4.59 42.13 5.10L42.13 5.10L42.13 5.10Q43.02 5.61 43.53 6.51L43.53 6.51L43.53 6.51Q44.04 7.41 44.04 8.51L44.04 8.51L44.04 8.51Q44.04 9.60 43.53 10.50L43.53 10.50L43.53 10.50Q43.02 11.40 42.13 11.91L42.13 11.91L42.13 11.91Q41.23 12.42 40.12 12.42L40.12 12.42L40.12 12.42Q39.13 12.42 38.32 11.99L38.32 11.99L38.32 11.99Q37.52 11.56 37.06 10.82L37.06 10.82L37.06 15.19L37.06 15.19Q37.06 15.39 36.95 15.50L36.95 15.50L36.95 15.50Q36.83 15.61 36.64 15.61L36.64 15.61L36.64 15.61Q36.46 15.61 36.34 15.50L36.34 15.50L36.34 15.50Q36.22 15.39 36.22 15.19L36.22 15.19L36.22 8.46L36.22 8.43L36.22 8.43Q36.23 7.35 36.75 6.47L36.75 6.47L36.75 6.47Q37.27 5.59 38.16 5.09L38.16 5.09L38.16 5.09Q39.05 4.59 40.12 4.59L40.12 4.59ZM40.12 11.63L40.12 11.63Q40.99 11.63 41.69 11.23L41.69 11.23L41.69 11.23Q42.39 10.82 42.80 10.11L42.80 10.11L42.80 10.11Q43.20 9.39 43.20 8.51L43.20 8.51L43.20 8.51Q43.20 7.63 42.80 6.92L42.80 6.92L42.80 6.92Q42.39 6.20 41.69 5.79L41.69 5.79L41.69 5.79Q40.99 5.38 40.12 5.38L40.12 5.38L40.12 5.38Q39.26 5.38 38.56 5.79L38.56 5.79L38.56 5.79Q37.86 6.20 37.46 6.92L37.46 6.92L37.46 6.92Q37.06 7.63 37.06 8.51L37.06 8.51L37.06 8.51Q37.06 9.39 37.46 10.11L37.46 10.11L37.46 10.11Q37.86 10.82 38.56 11.23L38.56 11.23L38.56 11.23Q39.26 11.63 40.12 11.63L40.12 11.63ZM49.64 4.59L49.64 4.59Q50.74 4.59 51.63 5.10L51.63 5.10L51.63 5.10Q52.53 5.61 53.04 6.51L53.04 6.51L53.04 6.51Q53.55 7.41 53.55 8.51L53.55 8.51L53.55 8.51Q53.55 9.60 53.04 10.50L53.04 10.50L53.04 10.50Q52.53 11.40 51.63 11.91L51.63 11.91L51.63 11.91Q50.74 12.42 49.64 12.42L49.64 12.42L49.64 12.42Q48.54 12.42 47.64 11.91L47.64 11.91L47.64 11.91Q46.75 11.40 46.23 10.50L46.23 10.50L46.23 10.50Q45.72 9.60 45.72 8.51L45.72 8.51L45.72 8.51Q45.72 7.41 46.23 6.51L46.23 6.51L46.23 6.51Q46.75 5.61 47.64 5.10L47.64 5.10L47.64 5.10Q48.54 4.59 49.64 4.59L49.64 4.59ZM49.64 5.38L49.64 5.38Q48.78 5.38 48.08 5.79L48.08 5.79L48.08 5.79Q47.38 6.20 46.97 6.92L46.97 6.92L46.97 6.92Q46.56 7.63 46.56 8.51L46.56 8.51L46.56 8.51Q46.56 9.39 46.97 10.11L46.97 10.11L46.97 10.11Q47.38 10.82 48.08 11.23L48.08 11.23L48.08 11.23Q48.78 11.63 49.64 11.63L49.64 11.63L49.64 11.63Q50.51 11.63 51.21 11.23L51.21 11.23L51.21 11.23Q51.91 10.82 52.31 10.11L52.31 10.11L52.31 10.11Q52.71 9.39 52.71 8.51L52.71 8.51L52.71 8.51Q52.71 7.63 52.31 6.92L52.31 6.92L52.31 6.92Q51.91 6.20 51.21 5.79L51.21 5.79L51.21 5.79Q50.51 5.38 49.64 5.38L49.64 5.38ZM59.11 11.48L59.11 11.48Q59.30 11.48 59.42 11.60L59.42 11.60L59.42 11.60Q59.54 11.72 59.54 11.91L59.54 11.91L59.54 11.91Q59.54 12.10 59.42 12.21L59.42 12.21L59.42 12.21Q59.30 12.33 59.11 12.33L59.11 12.33L58.79 12.33L58.79 12.33Q58.02 12.33 57.41 11.98L57.41 11.98L57.41 11.98Q56.81 11.63 56.48 11.03L56.48 11.03L56.48 11.03Q56.14 10.42 56.14 9.65L56.14 9.65L56.14 5.71L55.05 5.71L55.05 5.71Q54.88 5.71 54.77 5.61L54.77 5.61L54.77 5.61Q54.67 5.50 54.67 5.33L54.67 5.33L54.67 5.33Q54.67 5.17 54.77 5.06L54.77 5.06L54.77 5.06Q54.88 4.96 55.05 4.96L55.05 4.96L56.14 4.96L56.14 2.67L56.14 2.67Q56.14 2.48 56.26 2.36L56.26 2.36L56.26 2.36Q56.38 2.24 56.56 2.24L56.56 2.24L56.56 2.24Q56.76 2.24 56.88 2.36L56.88 2.36L56.88 2.36Q56.99 2.48 56.99 2.67L56.99 2.67L56.99 4.96L58.84 4.96L58.84 4.96Q59.01 4.96 59.12 5.06L59.12 5.06L59.12 5.06Q59.22 5.17 59.22 5.33L59.22 5.33L59.22 5.33Q59.22 5.50 59.12 5.61L59.12 5.61L59.12 5.61Q59.01 5.71 58.84 5.71L58.84 5.71L56.99 5.71L56.99 9.65L56.99 9.65Q56.99 10.46 57.50 10.97L57.50 10.97L57.50 10.97Q58.00 11.48 58.80 11.48L58.80 11.48L59.11 11.48ZM67.38 4.69L67.38 4.69Q67.65 4.80 67.65 5.01L67.65 5.01L67.65 5.01Q67.65 5.07 67.59 5.21L67.59 5.21L62.89 15.40L62.89 15.40Q62.76 15.65 62.57 15.65L62.57 15.65L62.57 15.65Q62.48 15.65 62.37 15.61L62.37 15.61L62.37 15.61Q62.10 15.50 62.10 15.29L62.10 15.29L62.10 15.29Q62.10 15.23 62.16 15.09L62.16 15.09L63.56 12.07L63.56 12.07Q63.55 12.05 63.50 11.97L63.50 11.97L60.44 5.25L60.44 5.25Q60.38 5.14 60.38 5.03L60.38 5.03L60.38 5.03Q60.38 4.82 60.62 4.70L60.62 4.70L60.62 4.70Q60.73 4.65 60.84 4.65L60.84 4.65L60.84 4.65Q61.05 4.65 61.17 4.89L61.17 4.89L64.01 11.10L66.86 4.90L66.86 4.90Q66.99 4.65 67.19 4.65L67.19 4.65L67.19 4.65Q67.28 4.65 67.38 4.69L67.38 4.69Z"></path></g><!----><g data-v-423bf9ae="" id="df7aaf5f-b6cc-4e84-ae45-677de21ff626" transform="matrix(1.3082018567814575,0,0,1.3082018567814575,84.04101792496363,-19.80825711591686)" stroke="none" fill="indigo"><path d="M39.787 30.509v35.293c-2.355-.958-5.166-1.287-8.086-.704-6.627 1.327-11.149 6.652-10.098 11.9 1.048 5.246 7.271 8.426 13.901 7.098 5.972-1.193 10.194-5.643 10.206-10.354h.041V43.123l26.835-10.318v23.197c-2.355-.957-5.166-1.287-8.086-.704-6.627 1.327-11.149 6.653-10.098 11.9 1.048 5.247 7.271 8.427 13.901 7.099 5.605-1.121 9.667-5.115 10.156-9.498h.09V15.601L39.787 30.509z"></path></g><!----></svg>